<?xml version="1.0" standalone="no"?>
<!DOCTYPE svg PUBLIC "-//W3C//DTD SVG 20010904//EN"
 "http://www.w3.org/TR/2001/REC-SVG-20010904/DTD/svg10.dtd">
<svg version="1.0" xmlns="http://www.w3.org/2000/svg"
 width="20px" height="20px" viewBox="0 0 1242.000000 1280.000000"
 preserveAspectRatio="xMidYMid meet">
<metadata>
Created by potrace 1.15, written by Peter Selinger 2001-2017
</metadata>
<g transform="translate(0.000000,1280.000000) scale(0.100000,-0.100000)"
fill="#FFFFFF" stroke="none">
<path d="M7163 11969 l-542 -601 33 -67 c103 -203 301 -411 611 -642 112 -83
419 -302 454 -323 28 -18 224 126 385 283 65 64 207 215 314 336 107 121 260
284 340 363 l145 143 -24 23 c-13 13 -267 247 -564 521 -297 274 -556 513
-575 531 l-35 34 -542 -601z"/>
<path d="M5440 11628 c-27 -45 -34 -102 -27 -247 14 -315 143 -774 313 -1115
128 -256 481 -681 769 -923 740 -622 1644 -740 2941 -383 288 79 709 285 1099
538 245 158 479 359 525 451 26 53 22 75 -40 208 -74 159 -190 319 -420 583
-187 214 -277 324 -330 402 -25 37 -51 68 -58 68 -40 1 -226 -124 -477 -319
-731 -569 -1365 -821 -2009 -798 -300 11 -560 70 -846 194 -247 106 -675 436
-933 718 -177 195 -351 439 -426 603 -29 62 -52 67 -81 20z"/>
<path d="M4075 10094 c-16 -2 -79 -9 -140 -15 -681 -67 -1445 -331 -1990 -686
-84 -55 -482 -350 -523 -388 -10 -9 70 -150 399 -701 226 -379 417 -699 425
-711 14 -22 15 -22 296 120 1346 680 2078 822 2544 491 117 -83 292 -291 360
-429 50 -101 58 -203 24 -298 -66 -180 -266 -420 -450 -539 -118 -77 -193
-113 -331 -159 -355 -119 -667 -136 -1348 -74 -211 19 -386 33 -388 31 -14
-14 83 -422 148 -622 140 -436 382 -899 631 -1209 48 -61 55 -66 83 -61 207
36 725 44 910 13 299 -51 513 -153 676 -324 119 -125 200 -265 265 -458 63
-190 77 -277 78 -495 1 -170 -2 -208 -22 -299 -81 -360 -282 -653 -586 -856
-251 -167 -565 -269 -961 -311 -181 -19 -625 -14 -800 10 -663 89 -1201 298
-1570 608 -300 253 -626 788 -890 1463 -92 233 -168 460 -236 704 -147 523
-247 804 -304 851 -14 11 -19 10 -37 -7 -103 -103 -72 -1047 57 -1746 54 -293
159 -662 274 -965 377 -991 1007 -1777 1811 -2256 223 -133 510 -266 720 -334
437 -143 1179 -171 1706 -67 171 34 269 67 419 140 516 250 1070 814 1313
1335 281 607 337 1537 136 2258 -43 153 -74 232 -218 552 l-115 255 522 6
c602 8 699 16 851 73 292 110 670 543 1094 1252 244 409 395 621 575 810 171
179 346 293 527 344 146 41 385 36 624 -11 165 -33 250 -74 337 -161 365 -365
536 -1437 359 -2250 -83 -381 -301 -767 -610 -1078 -138 -139 -232 -216 -397
-326 -593 -396 -1303 -474 -1819 -200 -112 60 -190 120 -304 235 -164 166
-305 370 -391 570 -50 116 -69 192 -79 318 -4 58 -10 107 -13 110 -12 12 -32
-14 -68 -91 -50 -108 -83 -211 -105 -332 -25 -137 -26 -561 -1 -749 97 -730
314 -1231 702 -1620 324 -324 673 -470 1212 -506 438 -29 866 63 1226 262 189
105 340 223 512 400 511 526 832 1322 945 2344 60 539 47 1085 -36 1580 -143
849 -482 1564 -979 2060 -142 143 -242 225 -425 347 -315 212 -491 264 -930
275 -520 12 -904 -56 -1200 -214 -450 -240 -787 -661 -1270 -1583 -284 -543
-459 -798 -671 -978 -284 -242 -568 -290 -949 -163 -108 37 -620 260 -620 271
0 3 40 29 88 59 304 189 388 259 533 441 294 369 555 908 646 1335 25 119 27
148 27 345 0 176 -4 236 -22 330 -116 626 -496 1191 -987 1468 -160 91 -342
149 -580 188 -95 15 -610 29 -690 18z"/>
</g>
</svg>
